<svg width="54" height="54" viewBox="0 0 54 54" fill="none" xmlns="http://www.w3.org/2000/svg">
<path d="M38.2109 17.6716C38.2109 16.6305 37.3655 15.7851 36.3244 15.7851L22.9982 15.7851C21.957 15.7851 21.1117 16.6305 21.1117 17.6716C21.1117 18.7127 21.957 19.5581 22.9982 19.5581L31.7768 19.5581L16.3392 34.9957C15.6021 35.7328 15.6021 36.9239 16.3392 37.661C17.0763 38.3981 18.2673 38.3981 19.0045 37.661L34.4421 22.2234L34.4421 31.002C34.4421 32.0431 35.2875 32.8885 36.3286 32.8885C37.3697 32.8885 38.2151 32.0431 38.2151 31.002L38.2151 17.6758L38.2109 17.6716Z" fill="#4B4B4B"/>
</svg>
